<svg width="40" height="40" viewBox="0 0 40 40" fill="none" xmlns="http://www.w3.org/2000/svg">
<rect width="40" height="40" rx="20" fill="#8755D5"/>
<g clip-path="url(#clip0_28747_205284)">
<path fill-rule="evenodd" clip-rule="evenodd" d="M19 8C16.7909 8 15 9.79086 15 12V20.101C15.5741 19.5151 16.2504 19.0297 17 18.6736V12C17 10.8954 17.8954 10 19 10H21C22.1046 10 23 10.8954 23 12V18.6736C23.7496 19.0297 24.4259 19.5151 25 20.101V12C25 9.79086 23.2091 8 21 8H19Z" fill="#FFAEE3"/>
<path fill-rule="evenodd" clip-rule="evenodd" d="M15 25C15 22.2386 17.2386 20 20 20C22.7614 20 25 22.2386 25 25V30.0909C25 31.1453 24.1453 32 23.0909 32H16.9091C15.8547 32 15 31.1453 15 30.0909V25ZM20 22C18.3431 22 17 23.3431 17 25V30H23V25C23 23.3431 21.6569 22 20 22Z" fill="#FFAEE3"/>
<circle cx="20" cy="25" r="1" fill="#FFAEE3"/>
</g>
<defs>
<clipPath id="clip0_28747_205284">
<rect width="24" height="24" fill="white" transform="translate(8 8)"/>
</clipPath>
</defs>
</svg>
