<svg width="40" height="40" viewBox="0 0 40 40" fill="none" xmlns="http://www.w3.org/2000/svg">
<rect width="40" height="40" rx="20" fill="#8755D5"/>
<path d="M19.9999 20.5005C21.1045 20.5005 21.9999 19.6051 21.9999 18.5005C21.9999 17.3959 21.1045 16.5005 19.9999 16.5005C18.8953 16.5005 17.9999 17.3959 17.9999 18.5005C17.9999 19.6051 18.8953 20.5005 19.9999 20.5005ZM19.9999 20.5005V23.5005M18.4899 10.2305L11.4099 13.5005L11.4099 22.5505C11.4099 23.7305 12.1899 25.2805 13.1399 25.9905L17.4399 29.2005C18.8499 30.2605 21.1699 30.2605 22.5799 29.2005L26.8799 25.9905C27.8299 25.2805 28.6099 23.7305 28.6099 22.5505V13.5005L21.5299 10.2305C20.6799 9.92055 19.3199 9.92055 18.4899 10.2305Z" stroke="#FFAEE3" stroke-width="2" stroke-linecap="round" stroke-linejoin="round"/>
</svg>
