<svg width="24" height="24" viewBox="0 0 24 24" fill="none" xmlns="http://www.w3.org/2000/svg">
<path d="M12 24C18.65 24 24 18.65 24 12C24 5.34996 18.65 0 12 0C5.34996 0 0 5.34996 0 12C0 18.65 5.34996 24 12 24Z" fill="#2775CA"/>
<path d="M15.3001 13.8995C15.3001 12.1496 14.2501 11.5496 12.1501 11.2996C10.6501 11.0996 10.3501 10.6996 10.3501 9.99951C10.3501 9.29943 10.8501 8.84955 11.8501 8.84955C12.7501 8.84955 13.2501 9.14955 13.5001 9.89955C13.5501 10.0496 13.7001 10.1495 13.8501 10.1495H14.65C14.8501 10.1495 15.0001 9.99951 15.0001 9.79959V9.74955C14.8 8.64951 13.9 7.79955 12.7501 7.69959V6.49959C12.7501 6.29955 12.6001 6.14955 12.3501 6.09951H11.6001C11.4001 6.09951 11.2501 6.24951 11.2 6.49959V7.64955C9.70002 7.84959 8.7501 8.84955 8.7501 10.0996C8.7501 11.7496 9.75006 12.3995 11.8501 12.6496C13.2501 12.8996 13.7001 13.1996 13.7001 13.9996C13.7001 14.7996 13 15.3496 12.0501 15.3496C10.75 15.3496 10.3 14.7995 10.15 14.0495C10.1001 13.8496 9.9501 13.7495 9.8001 13.7495H8.95002C8.7501 13.7495 8.6001 13.8995 8.6001 14.0996V14.1496C8.80002 15.3995 9.60006 16.2995 11.2501 16.5496V17.7496C11.2501 17.9495 11.4001 18.0995 11.65 18.1496H12.4C12.6001 18.1496 12.7501 17.9996 12.8001 17.7496V16.5496C14.3001 16.2995 15.3001 15.2495 15.3001 13.8995Z" fill="white"/>
<path d="M9.44951 19.1499C5.54951 17.75 3.54947 13.4 4.99955 9.54992C5.74955 7.44992 7.39955 5.84996 9.44951 5.09996C9.64955 5 9.74951 4.85 9.74951 4.59992V3.89996C9.74951 3.69992 9.64955 3.54992 9.44951 3.5C9.39947 3.5 9.29951 3.5 9.24947 3.54992C4.49951 5.04992 1.89947 10.1 3.39947 14.85C4.29947 17.6499 6.44951 19.8 9.24947 20.7C9.44951 20.7999 9.64955 20.7 9.69947 20.4999C9.74951 20.45 9.74951 20.4 9.74951 20.3V19.5999C9.74951 19.4499 9.59951 19.25 9.44951 19.1499ZM14.7496 3.54992C14.5495 3.44996 14.3495 3.54992 14.2996 3.74996C14.2495 3.8 14.2495 3.84992 14.2495 3.95V4.64996C14.2495 4.85 14.3995 5.04992 14.5495 5.15C18.4495 6.54992 20.4496 10.8999 18.9995 14.75C18.2495 16.85 16.5995 18.45 14.5495 19.2C14.3495 19.2999 14.2495 19.4499 14.2495 19.7V20.4C14.2495 20.6 14.3495 20.75 14.5495 20.7999C14.5996 20.7999 14.6995 20.7999 14.7496 20.75C19.4995 19.25 22.0996 14.1999 20.5996 9.44996C19.6996 6.59996 17.4995 4.44992 14.7496 3.54992Z" fill="white"/>
</svg>
