<svg width="24" height="24" viewBox="0 0 24 24" fill="none" xmlns="http://www.w3.org/2000/svg">
<path d="M12.0001 12.5005C13.1047 12.5005 14.0001 11.6051 14.0001 10.5005C14.0001 9.39592 13.1047 8.50049 12.0001 8.50049C10.8956 8.50049 10.0001 9.39592 10.0001 10.5005C10.0001 11.6051 10.8956 12.5005 12.0001 12.5005ZM12.0001 12.5005V15.5005M10.4902 2.23055L3.41016 5.50049L3.41017 14.5505C3.41017 15.7305 4.19017 17.2805 5.14017 17.9905L9.44017 21.2005C10.8502 22.2605 13.1702 22.2605 14.5802 21.2005L18.8802 17.9905C19.8302 17.2805 20.6102 15.7305 20.6102 14.5505V5.50049L13.5302 2.23055C12.6802 1.92055 11.3202 1.92055 10.4902 2.23055Z" stroke="#136880" stroke-width="2" stroke-linecap="round" stroke-linejoin="round"/>
</svg>
