<svg width="512" height="512" viewBox="0 0 512 512" fill="none" xmlns="http://www.w3.org/2000/svg">
<g clip-path="url(#clip0_12920_77705)">
<path d="M512 0H0V512H512V0Z" fill="#FFEE55"/>
<path d="M277.704 126.405C285.645 159.307 282.961 188.25 271.708 191.049C260.455 193.849 244.895 169.445 236.953 136.543C229.012 103.64 231.697 74.6979 242.949 71.8984C254.202 69.0989 269.762 93.5023 277.704 126.405Z" fill="black"/>
<path d="M408.837 154.693C391.249 136.053 356.26 141.106 330.685 165.978C305.11 190.85 298.635 226.123 316.222 244.763C333.809 263.403 368.799 258.351 394.373 233.478C419.948 208.606 426.424 173.333 408.837 154.693Z" fill="black"/>
<path d="M268.958 440.114C280.211 437.314 282.5 406.735 274.071 371.812C265.643 336.89 249.687 310.849 238.434 313.649C227.182 316.448 224.892 347.028 233.321 381.95C241.75 416.872 257.705 442.913 268.958 440.114Z" fill="black"/>
<path d="M154.247 171.758C186.712 181.332 210.434 198.128 207.232 209.273C204.03 220.418 175.116 221.692 142.651 212.118C110.186 202.544 86.4634 185.748 89.6654 174.603C92.8674 163.458 121.781 162.184 154.247 171.758Z" fill="black"/>
<path d="M364.959 297.608C399.417 307.769 424.755 325.042 421.553 336.187C418.351 347.332 387.822 348.129 353.364 337.967C318.906 327.806 293.568 310.533 296.77 299.388C299.972 288.243 330.501 287.446 364.959 297.608Z" fill="black"/>
<path d="M190.777 274.223C182.727 265.878 156.32 278.024 131.796 301.353C107.272 324.682 93.9181 350.359 101.969 358.704C110.02 367.05 136.427 354.904 160.951 331.575C185.474 308.246 198.828 282.569 190.777 274.223Z" fill="black"/>
</g>
<defs>
<clipPath id="clip0_12920_77705">
<rect width="512" height="512" fill="white"/>
</clipPath>
</defs>
</svg>
