<svg width="24" height="24" viewBox="0 0 24 24" fill="none" xmlns="http://www.w3.org/2000/svg">
<g clip-path="url(#clip0_759_354)">
<path d="M15.5 9H9.5C8.94772 9 8.5 9.44772 8.5 10V11C8.5 11.5523 8.94772 12 9.5 12H14.5C15.0523 12 15.5 12.4477 15.5 13V14C15.5 14.5523 15.0523 15 14.5 15H7.5M12 9V6M12 18V15M21 12C21 16.9706 16.9706 21 12 21C7.02944 21 3 16.9706 3 12C3 7.02944 7.02944 3 12 3C16.9706 3 21 7.02944 21 12Z" stroke="currentColor" stroke-width="2"/>
</g>
<defs>
<clipPath id="clip0_759_354">
<rect width="24" height="24" fill="white"/>
</clipPath>
</defs>
</svg>
