<svg width="24" height="24" viewBox="0 0 24 24" fill="none" xmlns="http://www.w3.org/2000/svg">
<path d="M5 11V4C5 3.44772 5.44772 3 6 3H18C18.5523 3 19 3.44772 19 4V11M10 8H14M3 12.3874V19C3 19.5523 3.44772 20 4 20H20C20.5523 20 21 19.5523 21 19V12.3874C21 11.7049 20.3313 11.2229 19.6838 11.4387L12.3162 13.8946C12.111 13.963 11.889 13.963 11.6838 13.8946L4.31623 11.4387C3.66869 11.2229 3 11.7049 3 12.3874Z" stroke="currentColor" stroke-width="2" stroke-linecap="round" stroke-linejoin="round"/>
</svg>
