<svg width="40" height="40" viewBox="0 0 40 40" fill="none" xmlns="http://www.w3.org/2000/svg">
<rect width="40" height="40" rx="20" fill="#F5B2C6"/>
<path d="M23.5799 19.9999C23.5799 21.9799 21.9799 23.5799 19.9999 23.5799C18.0199 23.5799 16.4199 21.9799 16.4199 19.9999C16.4199 18.0199 18.0199 16.4199 19.9999 16.4199C21.9799 16.4199 23.5799 18.0199 23.5799 19.9999Z" stroke="#9B1F69" stroke-width="2" stroke-linecap="round" stroke-linejoin="round"/>
<path d="M19.9998 28.2697C23.5298 28.2697 26.8198 26.1897 29.1098 22.5897C30.0098 21.1797 30.0098 18.8097 29.1098 17.3997C26.8198 13.7997 23.5298 11.7197 19.9998 11.7197C16.4698 11.7197 13.1798 13.7997 10.8898 17.3997C9.98984 18.8097 9.98984 21.1797 10.8898 22.5897C13.1798 26.1897 16.4698 28.2697 19.9998 28.2697Z" stroke="#9B1F69" stroke-width="2" stroke-linecap="round" stroke-linejoin="round"/>
</svg>
