<svg width="24" height="24" viewBox="0 0 24 24" fill="none" xmlns="http://www.w3.org/2000/svg">
<g clip-path="url(#clip0_759_263)">
<path d="M1 9L23 9M12 20V9M12 9V6M12 9H9C7.34315 9 6 7.65685 6 6C6 4.34315 7.34315 3 9 3C10.6569 3 12 4.34315 12 6M12 9H15C16.6569 9 18 7.65685 18 6C18 4.34315 16.6569 3 15 3C13.3431 3 12 4.34315 12 6M4 9H20V20H4V9Z" stroke="currentColor" stroke-width="2"/>
</g>
<defs>
<clipPath id="clip0_759_263">
<rect width="24" height="24" fill="white"/>
</clipPath>
</defs>
</svg>
