<svg width="24" height="24" viewBox="0 0 24 24" fill="none" xmlns="http://www.w3.org/2000/svg">
<path d="M11 13C7.2044 13 4.43391 15.5235 3.67155 18.9157C3.54235 19.4906 4.00917 20 4.59842 20H13M14.5 6.5C14.5 8.433 12.933 10 11 10C9.06701 10 7.5 8.433 7.5 6.5C7.5 4.567 9.06701 3 11 3C12.933 3 14.5 4.567 14.5 6.5Z" stroke="currentColor" stroke-width="2" stroke-linecap="round" stroke-linejoin="round"/>
<path fill-rule="evenodd" clip-rule="evenodd" d="M18.5 10C16.567 10 15 11.4262 15 13.1854C15 14.471 15.8368 15.5787 17.0417 16.082V19.832C17.0417 19.9933 17.1222 20.1458 17.2606 20.2466L18.1356 20.8837C18.3486 21.0388 18.6514 21.0388 18.8644 20.8837L19.7394 20.2466C19.8778 20.1458 19.9583 19.9933 19.9583 19.832V18.9479L19.0833 18.229L19.9583 17.4327V16.082C21.1632 15.5787 22 14.471 22 13.1854C22 11.4262 20.433 10 18.5 10ZM17.3333 13.1854C17.3333 12.599 17.8557 12.1236 18.5 12.1236C19.1443 12.1236 19.6667 12.599 19.6667 13.1854C19.6667 13.7718 19.1443 14.2472 18.5 14.2472C17.8557 14.2472 17.3333 13.7718 17.3333 13.1854Z" fill="currentColor"/>
</svg>
