<svg viewBox="0 0 16 16" fill="none" xmlns="http://www.w3.org/2000/svg">
<path d="M14 4.66699H10.6667" stroke="currentColor" stroke-width="1.2" stroke-linecap="round" stroke-linejoin="round"/>
<path d="M4 4.66699H2" stroke="currentColor" stroke-width="1.2" stroke-linecap="round" stroke-linejoin="round"/>
<path d="M6.33334 6.66699C7.43791 6.66699 8.33334 5.77156 8.33334 4.66699C8.33334 3.56242 7.43791 2.66699 6.33334 2.66699C5.22877 2.66699 4.33334 3.56242 4.33334 4.66699C4.33334 5.77156 5.22877 6.66699 6.33334 6.66699Z" stroke="currentColor" stroke-width="1.33333" stroke-linecap="round" stroke-linejoin="round"/>
<path d="M14 11.333H12" stroke="currentColor" stroke-width="1.33333" stroke-linecap="round" stroke-linejoin="round"/>
<path d="M5.33333 11.333H2" stroke="currentColor" stroke-width="1.33333" stroke-linecap="round" stroke-linejoin="round"/>
<path d="M9.66666 13.333C10.7712 13.333 11.6667 12.4376 11.6667 11.333C11.6667 10.2284 10.7712 9.33301 9.66666 9.33301C8.56209 9.33301 7.66666 10.2284 7.66666 11.333C7.66666 12.4376 8.56209 13.333 9.66666 13.333Z" stroke="currentColor" stroke-width="1.33333" stroke-linecap="round" stroke-linejoin="round"/>
</svg>
