<svg width="16" height="16" viewBox="0 0 16 16" fill="none" xmlns="http://www.w3.org/2000/svg">
<path d="M2 4.66634L4.33333 5.99967M14 11.333L11.6667 9.99967M8 7.99967L4.33333 5.99967M8 7.99967L4.33333 9.99967M8 7.99967V3.33301M8 7.99967V12.333M8 7.99967L11.6667 9.99967M8 7.99967L11.6667 5.99967M8 1.33301V3.33301M8 14.6663V12.333M14 4.66634L11.6667 5.99967M2 11.333L4.33333 9.99967M4.33333 5.99967L2 6.66634M4.33333 5.99967L4 3.66634M4.33333 9.99967L2 9.33301M4.33333 9.99967L4 12.333M8 3.33301L6.33333 2.66634M8 3.33301L9.66667 2.66634M8 12.333L9.66667 13.333M8 12.333L6.33333 13.333M11.6667 9.99967L12 12.333M11.6667 9.99967L14 9.33301M11.6667 5.99967L14 6.66634M11.6667 5.99967L12 3.66634" stroke="currentColor" stroke-width="1.5" stroke-linecap="round" stroke-linejoin="round"/>
</svg>
