<svg width="24" height="24" viewBox="0 0 24 24" fill="none" xmlns="http://www.w3.org/2000/svg">
<path d="M19.289 5.75625C17.9296 5.16937 16.4761 4.74286 14.9565 4.5C14.7699 4.81134 14.5519 5.2301 14.4016 5.56322C12.7862 5.33906 11.1857 5.33906 9.60001 5.56322C9.44972 5.2301 9.22674 4.81134 9.03844 4.5C7.51721 4.74286 6.06204 5.17094 4.70267 5.75935C1.96081 9.58252 1.21754 13.3107 1.58918 16.986C3.40772 18.2391 5.17011 19.0003 6.90275 19.4985C7.33055 18.9552 7.71209 18.3777 8.04078 17.769C7.41478 17.5495 6.81521 17.2787 6.24869 16.9642C6.39899 16.8615 6.546 16.7541 6.68803 16.6435C10.1434 18.1348 13.8978 18.1348 17.3119 16.6435C17.4556 16.7541 17.6026 16.8615 17.7512 16.9642C17.183 17.2802 16.5818 17.5511 15.9558 17.7706C16.2845 18.3777 16.6644 18.9567 17.0939 19.5C18.8282 19.0019 20.5922 18.2407 22.4107 16.986C22.8468 12.7254 21.6658 9.03146 19.289 5.75625ZM8.51153 14.7257C7.47426 14.7257 6.62361 13.8322 6.62361 12.7441C6.62361 11.656 7.45609 10.7609 8.51153 10.7609C9.567 10.7609 10.4176 11.6544 10.3995 12.7441C10.4011 13.8322 9.567 14.7257 8.51153 14.7257ZM15.4884 14.7257C14.4511 14.7257 13.6005 13.8322 13.6005 12.7441C13.6005 11.656 14.4329 10.7609 15.4884 10.7609C16.5438 10.7609 17.3945 11.6544 17.3763 12.7441C17.3763 13.8322 16.5438 14.7257 15.4884 14.7257Z" fill="currentColor"/>
</svg>
