<svg width="24" height="24" viewBox="0 0 24 24" fill="none" xmlns="http://www.w3.org/2000/svg">
<path d="M9.35266 14.7648L9.28146 14.7123L18.3293 6.58873C18.7184 6.232 18.232 6.05364 17.7131 6.37793L6.57359 13.3989L1.75781 11.891C0.720068 11.5829 0.703854 10.8694 1.98482 10.3505L20.7291 3.11877C21.5885 2.72961 22.4154 3.31335 22.0911 4.62674L18.8968 19.674C18.6698 20.7442 18.0212 20.9874 17.1294 20.501L12.269 16.9159C11.1267 18.0267 10.1037 19.0209 9.92992 19.188C9.91446 19.2026 9.8992 19.217 9.88409 19.2314C9.62976 19.4722 9.41619 19.6745 8.95703 19.6745V19.5123L9.35266 14.7648Z" fill="currentColor"/>
</svg>
