<svg width="24" height="24" viewBox="0 0 24 24" fill="none" xmlns="http://www.w3.org/2000/svg">
<path d="M23.706 5.185C22.871 5.555 21.974 5.805 21.031 5.918C21.993 5.342 22.731 4.428 23.079 3.34C22.179 3.874 21.182 4.262 20.121 4.47C19.271 3.566 18.061 3 16.721 3C14.149 3 12.063 5.086 12.063 7.66C12.063 8.024 12.105 8.378 12.183 8.72C8.31 8.525 4.879 6.67 2.581 3.852C2.181 4.542 1.951 5.342 1.951 6.194C1.951 7.81 2.774 9.237 4.023 10.072C3.259 10.047 2.541 9.838 1.913 9.489V9.549C1.913 11.806 3.518 13.689 5.65 14.117C5.258 14.223 4.847 14.279 4.423 14.279C4.123 14.279 3.83 14.251 3.546 14.197C4.139 16.047 5.859 17.395 7.898 17.431C6.303 18.681 4.294 19.426 2.112 19.426C1.736 19.426 1.365 19.404 1 19.361C3.062 20.684 5.51 21.454 8.14 21.454C16.71 21.454 21.395 14.356 21.395 8.2C21.395 8 21.39 7.798 21.381 7.598C22.291 6.94 23.081 6.121 23.704 5.188L23.706 5.185Z" fill="currentColor"/>
</svg>
